<svg width="285" height="47" viewBox="0 0 285 47" fill="none" xmlns="http://www.w3.org/2000/svg">
<path d="M34.352 3.824C34.3947 4.12267 34.416 4.4 34.416 4.656C34.416 4.912 34.416 5.168 34.416 5.424V8.048L34.032 41.264V41.904C34.032 42.16 33.968 42.544 33.84 43.056C33.7973 43.2693 33.7333 43.504 33.648 43.76C33.5627 43.9733 33.4773 44.208 33.392 44.464C33.1787 44.976 32.88 45.36 32.496 45.616C32.1547 45.9573 31.6 46.192 30.832 46.32C29.6373 46.576 28.5493 46.4693 27.568 46C27.0133 45.6587 26.6293 45.232 26.416 44.72C26.3307 44.6347 26.2453 44.5067 26.16 44.336C26.16 44.2507 26.1173 44.1227 26.032 43.952C25.9467 43.7387 25.8827 43.5253 25.84 43.312C25.7973 43.056 25.7547 42.8 25.712 42.544C25.712 42.3307 25.6907 42.1173 25.648 41.904C25.648 41.6907 25.6267 41.4773 25.584 41.264C25.4987 41.0507 25.456 40.88 25.456 40.752C25.456 40.5813 25.456 40.3893 25.456 40.176C25.5413 40.0053 25.584 39.6853 25.584 39.216L25.648 34.16L25.712 26.096H22.256L9.264 26.16L9.136 41.264V41.904C9.136 42.16 9.072 42.544 8.944 43.056C8.90133 43.2693 8.83733 43.504 8.752 43.76C8.66667 43.9733 8.58133 44.208 8.496 44.464C8.28267 44.976 7.984 45.36 7.6 45.616C7.25867 45.9573 6.704 46.192 5.936 46.32C4.74133 46.576 3.65333 46.4693 2.672 46C2.24533 45.744 1.84 45.3173 1.456 44.72C1.37067 44.5493 1.328 44.4213 1.328 44.336L1.136 43.952C1.05067 43.7387 0.986667 43.5253 0.944 43.312C0.901333 43.056 0.858667 42.8 0.816 42.544C0.816 42.3307 0.794667 42.1173 0.752 41.904C0.709333 41.6907 0.666667 41.4773 0.624 41.264C0.581333 40.9227 0.581333 40.56 0.624 40.176V39.216L0.688 34.16L0.816 24.752C0.858667 23.3867 0.88 21.9787 0.88 20.528C0.88 19.0773 0.88 17.584 0.88 16.048C0.837334 14.512 0.816 13.1467 0.816 11.952C0.858667 10.7573 0.922667 9.41333 1.008 7.92V7.664C1.05067 7.23733 1.072 6.81067 1.072 6.384C1.072 5.91466 1.09333 5.44533 1.136 4.976C1.17867 4.54933 1.24267 4.144 1.328 3.76C1.456 3.33333 1.62667 2.90667 1.84 2.48C1.968 2.13867 2.13867 1.86133 2.352 1.648C2.56533 1.392 2.82133 1.15733 3.12 0.943996C3.80267 0.602665 4.48533 0.431999 5.168 0.431999C5.50933 0.431999 5.808 0.453332 6.064 0.495998C6.32 0.495998 6.576 0.517331 6.832 0.559998C7.344 0.602664 7.83467 0.858664 8.304 1.328C8.64533 1.62666 8.88 1.968 9.008 2.352C9.22133 2.90666 9.34933 3.39733 9.392 3.824C9.43467 4.12267 9.456 4.4 9.456 4.656C9.456 4.912 9.456 5.168 9.456 5.424V8.048L9.328 18.608C9.66933 18.608 10.0533 18.608 10.48 18.608C10.9493 18.608 11.4827 18.5867 12.08 18.544C14.2987 18.544 16.496 18.5653 18.672 18.608C20.8907 18.6507 23.216 18.672 25.648 18.672H25.712C25.712 16.752 25.712 14.9173 25.712 13.168C25.7547 11.4187 25.8187 9.584 25.904 7.664C25.904 7.23733 25.904 6.81067 25.904 6.384C25.9467 5.91466 25.9893 5.44533 26.032 4.976C26.0747 4.54933 26.1387 4.144 26.224 3.76C26.352 3.33333 26.5227 2.90667 26.736 2.48C26.8213 2.13867 26.9707 1.86133 27.184 1.648C27.44 1.392 27.7387 1.15733 28.08 0.943996C28.6773 0.602665 29.3387 0.431999 30.064 0.431999C30.4053 0.431999 30.704 0.453332 30.96 0.495998C31.2587 0.495998 31.5147 0.517331 31.728 0.559998C32.3253 0.645332 32.816 0.901333 33.2 1.328C33.5413 1.54133 33.776 1.88266 33.904 2.352C33.9893 2.608 34.0533 2.864 34.096 3.12C34.1813 3.33333 34.2667 3.568 34.352 3.824ZM48.999 21.744C48.999 22.9387 48.999 24.2827 48.999 25.776C49.0417 27.2693 49.063 28.8267 49.063 30.448C49.063 32.0267 49.063 33.6053 49.063 35.184C49.063 36.72 49.0417 38.1493 48.999 39.472C48.9563 40.112 48.8923 40.816 48.807 41.584C48.7217 42.3093 48.551 42.992 48.295 43.632C48.039 44.272 47.6337 44.8053 47.079 45.232C46.567 45.616 45.863 45.7867 44.967 45.744C43.6443 45.6587 42.6843 45.0827 42.087 44.016C41.5323 42.9493 41.2123 41.456 41.127 39.536C41.127 38.5547 41.1057 37.424 41.063 36.144C41.063 34.864 41.0417 33.5627 40.999 32.24C40.999 30.9173 40.999 29.6373 40.999 28.4C40.999 27.12 40.999 25.968 40.999 24.944C40.999 24.3467 40.9777 23.6213 40.935 22.768C40.935 21.9147 40.9563 21.04 40.999 20.144C41.0417 19.248 41.1483 18.3947 41.319 17.584C41.4897 16.7307 41.767 16.0267 42.151 15.472C42.4497 15.1307 42.8763 14.8747 43.431 14.704C43.9857 14.4907 44.5617 14.384 45.159 14.384C45.799 14.384 46.3963 14.4907 46.951 14.704C47.5483 14.9173 47.975 15.216 48.231 15.6C48.4017 15.856 48.5297 16.2187 48.615 16.688C48.7003 17.1573 48.7643 17.6907 48.807 18.288C48.8923 18.8427 48.935 19.44 48.935 20.08C48.9777 20.6773 48.999 21.232 48.999 21.744ZM46.567 8.816C45.2443 9.15733 44.135 9.02933 43.239 8.432C42.3857 7.792 41.8523 6.85333 41.639 5.616C41.4683 4.72 41.5323 3.93067 41.831 3.248C42.1297 2.56533 42.5777 2.05333 43.175 1.712C43.7723 1.328 44.455 1.15733 45.223 1.2C45.991 1.24266 46.759 1.54133 47.527 2.096C48.2523 2.608 48.7643 3.20533 49.063 3.888C49.4043 4.57066 49.511 5.232 49.383 5.872C49.2977 6.512 49.0203 7.10933 48.551 7.664C48.0817 8.176 47.4203 8.56 46.567 8.816ZM67.3585 31.28C68.2972 32.2613 68.9798 32.9867 69.4065 33.456C69.8758 33.8827 70.1958 34.2027 70.3665 34.416C70.5798 34.6293 70.7292 34.7573 70.8145 34.8C70.8998 34.8427 71.0492 34.9707 71.2625 35.184C71.4758 35.3973 71.8172 35.7387 72.2865 36.208C72.7558 36.6347 73.4598 37.3387 74.3985 38.32C75.1665 39.088 75.7852 39.984 76.2545 41.008C76.7665 41.9893 76.7238 43.056 76.1265 44.208C75.7852 44.8053 75.4012 45.232 74.9745 45.488C74.5478 45.7013 74.0785 45.7867 73.5665 45.744C73.0972 45.7013 72.5852 45.552 72.0305 45.296C71.5185 45.04 71.0065 44.72 70.4945 44.336C69.5132 43.6107 68.5745 42.7787 67.6785 41.84C66.7825 40.8587 66.0572 40.112 65.5025 39.6C65.1185 39.216 64.8838 38.96 64.7985 38.832C64.7132 38.7467 64.6278 38.6827 64.5425 38.64C64.4572 38.5547 64.3718 38.4693 64.2865 38.384C63.9878 38.0853 63.6678 37.7867 63.3265 37.488C62.9852 37.1893 62.6438 36.8693 62.3025 36.528V39.024C62.3025 39.4933 62.3238 39.8347 62.3665 40.048C62.3665 40.4747 62.3452 40.7947 62.3025 41.008C62.1745 41.4773 62.1105 41.9253 62.1105 42.352C62.0678 42.5653 62.0252 42.7787 61.9825 42.992C61.9398 43.1627 61.8758 43.3547 61.7905 43.568C61.7478 43.6533 61.7052 43.7173 61.6625 43.76C61.6625 43.8027 61.6625 43.8667 61.6625 43.952C61.6198 44.0373 61.5772 44.1013 61.5345 44.144C61.5345 44.1867 61.5132 44.2507 61.4705 44.336C61.2572 44.7627 60.9158 45.168 60.4465 45.552C59.6358 46.0213 58.6332 46.1493 57.4385 45.936C56.7985 45.808 56.3078 45.5733 55.9665 45.232C55.5825 44.976 55.3265 44.6133 55.1985 44.144C55.1132 43.9307 55.0278 43.7173 54.9425 43.504C54.8998 43.248 54.8358 43.0133 54.7505 42.8C54.6652 42.5867 54.6225 42.3947 54.6225 42.224C54.6225 42.0107 54.6225 41.84 54.6225 41.712V5.296C54.6225 5.04 54.6225 4.784 54.6225 4.528C54.6225 4.272 54.6438 4.016 54.6865 3.76C54.7292 3.504 54.7718 3.26933 54.8145 3.056C54.8998 2.8 54.9852 2.56533 55.0705 2.352C55.2412 1.92533 55.4545 1.584 55.7105 1.328C55.9238 1.11467 56.1372 0.965332 56.3505 0.879997C56.6065 0.751999 56.8412 0.645332 57.0545 0.559998C57.2678 0.517331 57.5025 0.495998 57.7585 0.495998C58.0572 0.453332 58.3345 0.431999 58.5905 0.431999C59.1878 0.431999 59.7852 0.602665 60.3825 0.943996C60.9372 1.328 61.3425 1.81866 61.5985 2.416C61.9398 3.22666 62.1105 4.016 62.1105 4.784C62.1532 5.21067 62.1958 5.872 62.2385 6.768C62.2812 7.62133 62.3025 8.26133 62.3025 8.688V8.944C62.3452 10.352 62.3665 11.696 62.3665 12.976C62.3665 14.256 62.3665 15.6427 62.3665 17.136C62.3238 18.6293 62.3025 20.0587 62.3025 21.424C62.3025 22.7467 62.3025 24.0693 62.3025 25.392V26.096C62.6438 25.7547 62.9852 25.4347 63.3265 25.136C63.6678 24.8373 63.9878 24.5173 64.2865 24.176C64.4572 24.048 64.6278 23.8987 64.7985 23.728L65.5025 23.024C66.0572 22.4693 66.7825 21.7227 67.6785 20.784C68.5745 19.8027 69.5132 18.9493 70.4945 18.224C71.5612 17.456 72.5852 16.9867 73.5665 16.816C74.5905 16.6453 75.4438 17.1573 76.1265 18.352C76.7238 19.504 76.7665 20.592 76.2545 21.616C75.7852 22.5973 75.1665 23.5147 74.3985 24.368C73.4598 25.3493 72.7558 26.0747 72.2865 26.544C71.8172 26.9707 71.4758 27.2907 71.2625 27.504C71.0492 27.6747 70.8998 27.7813 70.8145 27.824C70.7292 27.8667 70.5798 27.9947 70.3665 28.208C70.1958 28.3787 69.8758 28.6987 69.4065 29.168C68.9798 29.5947 68.2972 30.2987 67.3585 31.28ZM103.892 37.232C104.404 37.104 104.916 37.0187 105.428 36.976C105.982 36.9333 106.473 36.9973 106.9 37.168C107.369 37.3387 107.753 37.6373 108.052 38.064C108.35 38.448 108.5 39.0027 108.5 39.728C108.5 40.24 108.372 40.7307 108.116 41.2C107.86 41.6693 107.54 42.096 107.156 42.48C106.772 42.864 106.345 43.2053 105.876 43.504C105.406 43.76 104.958 43.9733 104.532 44.144C103.294 44.6987 101.865 45.1253 100.244 45.424C98.6648 45.7227 97.0222 45.8293 95.3155 45.744C93.0115 45.6587 90.7928 45.2107 88.6595 44.4C86.5688 43.5467 84.9262 42.16 83.7315 40.24C82.6222 38.3627 81.9608 36.272 81.7475 33.968C81.5342 31.664 81.6408 29.488 82.0675 27.44C82.5368 24.9653 83.3262 22.96 84.4355 21.424C85.5875 19.8453 86.9528 18.5867 88.5315 17.648C90.4515 16.5387 92.6062 15.9627 94.9955 15.92C97.3848 15.8773 99.6675 16.3467 101.844 17.328C103.294 17.968 104.596 18.8427 105.748 19.952C106.9 21.0187 107.774 22.32 108.372 23.856C108.542 24.24 108.67 24.7093 108.756 25.264C108.884 25.8187 108.969 26.416 109.012 27.056C109.054 27.6533 109.054 28.2507 109.012 28.848C108.969 29.4453 108.862 29.9787 108.692 30.448C108.436 31.216 108.116 31.8133 107.732 32.24C107.348 32.6667 106.857 32.9867 106.26 33.2C105.662 33.4133 104.937 33.5627 104.084 33.648C103.273 33.6907 102.292 33.7333 101.14 33.776C100.116 33.8187 99.1555 33.84 98.2595 33.84C97.3635 33.84 96.4462 33.84 95.5075 33.84C94.5688 33.7973 93.5875 33.776 92.5635 33.776C91.5822 33.7333 90.4728 33.6907 89.2355 33.648C89.1075 34.5013 89.2142 35.248 89.5555 35.888C89.9395 36.4853 90.4515 36.9973 91.0915 37.424C91.7315 37.808 92.4568 38.1067 93.2675 38.32C94.0782 38.5333 94.8675 38.6613 95.6355 38.704C97.0862 38.7893 98.4728 38.6827 99.7955 38.384C101.118 38.0427 102.484 37.6587 103.892 37.232ZM101.14 24.816C100.329 23.8773 99.4755 23.1947 98.5795 22.768C97.8968 22.4693 97.1715 22.3413 96.4035 22.384C95.6782 22.384 94.9742 22.4907 94.2915 22.704C93.0542 23.0027 92.0088 23.6427 91.1555 24.624C91.0702 24.7093 90.9208 24.9227 90.7075 25.264C90.4942 25.5627 90.2808 25.8827 90.0675 26.224C89.8968 26.5653 89.7688 26.8853 89.6835 27.184C89.5982 27.4827 89.6408 27.632 89.8115 27.632H102.356C102.313 27.0347 102.206 26.544 102.036 26.16C101.865 25.7333 101.566 25.2853 101.14 24.816Z" fill="black"/>
<path d="M153.673 41.648C153.716 41.904 153.737 42.16 153.737 42.416C153.78 42.6293 153.801 42.8853 153.801 43.184C153.801 43.696 153.652 44.1653 153.353 44.592C153.225 44.8053 153.054 45.0187 152.841 45.232C152.628 45.4027 152.372 45.552 152.073 45.68C151.006 46.2773 149.876 46.4907 148.681 46.32C148.084 46.1493 147.55 45.872 147.081 45.488C146.996 45.4027 146.932 45.36 146.889 45.36C146.846 45.3173 146.804 45.2533 146.761 45.168C146.718 45.1253 146.676 45.0827 146.633 45.04C146.59 44.9547 146.526 44.8907 146.441 44.848C146.228 44.6347 146.057 44.4427 145.929 44.272C145.801 44.0587 145.673 43.8453 145.545 43.632C145.46 43.4187 145.353 43.2267 145.225 43.056C145.14 42.8427 145.033 42.6293 144.905 42.416C144.82 42.2453 144.734 42.096 144.649 41.968C144.564 41.7973 144.5 41.6267 144.457 41.456C144.286 41.072 144.18 40.7307 144.137 40.432L142.793 37.296C139.849 37.296 136.905 37.3173 133.961 37.36C131.06 37.36 128.137 37.3387 125.193 37.296L123.849 40.432C123.764 40.6027 123.7 40.7733 123.657 40.944C123.657 41.1147 123.614 41.2853 123.529 41.456C123.444 41.6267 123.358 41.7973 123.273 41.968C123.23 42.096 123.166 42.2453 123.081 42.416C122.953 42.6293 122.825 42.8427 122.697 43.056C122.612 43.2267 122.505 43.4187 122.377 43.632C122.292 43.8453 122.185 44.0587 122.057 44.272C121.929 44.4427 121.758 44.6347 121.545 44.848C121.46 44.8907 121.396 44.9547 121.353 45.04C121.31 45.0827 121.268 45.1253 121.225 45.168C121.182 45.2533 121.14 45.3173 121.097 45.36C121.054 45.36 120.99 45.4027 120.905 45.488C120.436 45.872 119.902 46.1493 119.305 46.32C118.11 46.4907 116.98 46.2773 115.913 45.68C115.614 45.552 115.358 45.4027 115.145 45.232C114.932 45.0187 114.761 44.8053 114.633 44.592C114.334 44.1653 114.185 43.696 114.185 43.184C114.185 42.8853 114.185 42.6293 114.185 42.416C114.228 42.16 114.27 41.904 114.313 41.648C114.398 41.264 114.505 40.88 114.633 40.496C114.761 40.112 114.825 39.92 114.825 39.92L128.137 7.152L128.521 6.128C128.606 5.872 128.713 5.63733 128.841 5.424C128.969 5.21066 129.076 4.95466 129.161 4.656C129.374 4.10133 129.609 3.61066 129.865 3.184C129.993 2.928 130.142 2.69333 130.313 2.48C130.484 2.26666 130.654 2.05333 130.825 1.84C131.081 1.49866 131.444 1.22133 131.913 1.008C132.51 0.794666 133.193 0.688 133.961 0.688C134.772 0.688 135.476 0.794666 136.073 1.008C136.542 1.22133 136.905 1.49866 137.161 1.84C137.46 2.224 137.78 2.672 138.121 3.184C138.377 3.61066 138.612 4.10133 138.825 4.656C138.91 4.95466 139.017 5.21066 139.145 5.424C139.273 5.63733 139.38 5.872 139.465 6.128L139.849 7.152L153.161 39.92C153.161 39.92 153.225 40.112 153.353 40.496C153.481 40.88 153.588 41.264 153.673 41.648ZM138.505 25.968C137.95 24.7307 137.374 23.4507 136.777 22.128C136.222 20.8053 135.625 19.4613 134.985 18.096C134.814 17.712 134.644 17.328 134.473 16.944C134.302 16.5173 134.132 16.112 133.961 15.728C133.833 16.112 133.684 16.5173 133.513 16.944C133.342 17.328 133.172 17.712 133.001 18.096C132.361 19.4613 131.742 20.8053 131.145 22.128C130.59 23.4507 130.036 24.7307 129.481 25.968L128.329 28.784H139.657L138.505 25.968ZM174.231 34.736C173.42 34.224 172.503 33.8187 171.479 33.52C170.498 33.2213 169.474 32.944 168.407 32.688C167.383 32.432 166.38 32.1547 165.399 31.856C164.418 31.5147 163.522 31.0453 162.711 30.448C160.962 29.1253 159.938 27.504 159.639 25.584C159.383 23.6213 159.81 21.6587 160.919 19.696C161.516 18.672 162.306 17.84 163.287 17.2C164.268 16.5173 165.335 16.0053 166.487 15.664C167.682 15.28 168.898 15.0667 170.135 15.024C171.372 14.9813 172.546 15.0453 173.655 15.216C174.38 15.344 175.148 15.536 175.959 15.792C176.77 16.0053 177.516 16.304 178.199 16.688C178.924 17.072 179.564 17.5627 180.119 18.16C180.716 18.7147 181.143 19.4187 181.399 20.272C181.57 20.8267 181.591 21.36 181.463 21.872C181.378 22.384 181.164 22.8107 180.823 23.152C180.524 23.4933 180.119 23.7493 179.607 23.92C179.138 24.0907 178.626 24.1333 178.071 24.048C177.431 23.92 176.834 23.728 176.279 23.472C175.724 23.216 175.17 22.9387 174.615 22.64C174.06 22.3413 173.484 22.0853 172.887 21.872C172.332 21.6587 171.735 21.552 171.095 21.552C170.114 21.5093 169.303 21.68 168.663 22.064C168.023 22.448 167.575 22.9173 167.319 23.472C167.106 24.0267 167.127 24.624 167.383 25.264C167.682 25.904 168.279 26.4587 169.175 26.928C169.986 27.3547 170.882 27.696 171.863 27.952C172.844 28.208 173.804 28.464 174.743 28.72C175.724 28.976 176.663 29.2747 177.559 29.616C178.498 29.9573 179.33 30.4267 180.055 31.024C181.463 32.176 182.316 33.52 182.615 35.056C182.956 36.592 182.871 38.1067 182.359 39.6C181.847 41.0933 180.951 42.416 179.671 43.568C178.434 44.72 176.962 45.488 175.255 45.872C174.018 46.128 172.674 46.256 171.223 46.256C169.815 46.256 168.407 46.1067 166.999 45.808C165.634 45.5093 164.311 45.04 163.031 44.4C161.794 43.76 160.748 42.9493 159.895 41.968C159.298 41.2853 158.978 40.5173 158.935 39.664C158.935 38.768 159.106 38 159.447 37.36C159.831 36.6773 160.364 36.208 161.047 35.952C161.73 35.696 162.498 35.8453 163.351 36.4C164.034 36.8693 164.844 37.3387 165.783 37.808C166.722 38.2347 167.66 38.576 168.599 38.832C169.538 39.088 170.434 39.216 171.287 39.216C172.183 39.216 172.951 39.024 173.591 38.64C174.53 38.0427 175.02 37.36 175.063 36.592C175.106 35.7813 174.828 35.1627 174.231 34.736ZM203.294 34.736C202.483 34.224 201.566 33.8187 200.542 33.52C199.56 33.2213 198.536 32.944 197.47 32.688C196.446 32.432 195.443 32.1547 194.462 31.856C193.48 31.5147 192.584 31.0453 191.774 30.448C190.024 29.1253 189 27.504 188.702 25.584C188.446 23.6213 188.872 21.6587 189.982 19.696C190.579 18.672 191.368 17.84 192.35 17.2C193.331 16.5173 194.398 16.0053 195.55 15.664C196.744 15.28 197.96 15.0667 199.198 15.024C200.435 14.9813 201.608 15.0453 202.718 15.216C203.443 15.344 204.211 15.536 205.022 15.792C205.832 16.0053 206.579 16.304 207.262 16.688C207.987 17.072 208.627 17.5627 209.182 18.16C209.779 18.7147 210.206 19.4187 210.462 20.272C210.632 20.8267 210.654 21.36 210.526 21.872C210.44 22.384 210.227 22.8107 209.886 23.152C209.587 23.4933 209.182 23.7493 208.67 23.92C208.2 24.0907 207.688 24.1333 207.134 24.048C206.494 23.92 205.896 23.728 205.342 23.472C204.787 23.216 204.232 22.9387 203.678 22.64C203.123 22.3413 202.547 22.0853 201.95 21.872C201.395 21.6587 200.798 21.552 200.158 21.552C199.176 21.5093 198.366 21.68 197.726 22.064C197.086 22.448 196.638 22.9173 196.382 23.472C196.168 24.0267 196.19 24.624 196.446 25.264C196.744 25.904 197.342 26.4587 198.238 26.928C199.048 27.3547 199.944 27.696 200.926 27.952C201.907 28.208 202.867 28.464 203.806 28.72C204.787 28.976 205.726 29.2747 206.622 29.616C207.56 29.9573 208.392 30.4267 209.118 31.024C210.526 32.176 211.379 33.52 211.678 35.056C212.019 36.592 211.934 38.1067 211.422 39.6C210.91 41.0933 210.014 42.416 208.734 43.568C207.496 44.72 206.024 45.488 204.318 45.872C203.08 46.128 201.736 46.256 200.286 46.256C198.878 46.256 197.47 46.1067 196.062 45.808C194.696 45.5093 193.374 45.04 192.094 44.4C190.856 43.76 189.811 42.9493 188.958 41.968C188.36 41.2853 188.04 40.5173 187.998 39.664C187.998 38.768 188.168 38 188.51 37.36C188.894 36.6773 189.427 36.208 190.11 35.952C190.792 35.696 191.56 35.8453 192.414 36.4C193.096 36.8693 193.907 37.3387 194.845 37.808C195.784 38.2347 196.723 38.576 197.662 38.832C198.6 39.088 199.496 39.216 200.35 39.216C201.246 39.216 202.014 39.024 202.654 38.64C203.592 38.0427 204.083 37.36 204.126 36.592C204.168 35.7813 203.891 35.1627 203.294 34.736ZM225.124 21.744C225.124 22.9387 225.124 24.2827 225.124 25.776C225.167 27.2693 225.188 28.8267 225.188 30.448C225.188 32.0267 225.188 33.6053 225.188 35.184C225.188 36.72 225.167 38.1493 225.124 39.472C225.081 40.112 225.017 40.816 224.932 41.584C224.847 42.3093 224.676 42.992 224.42 43.632C224.164 44.272 223.759 44.8053 223.204 45.232C222.692 45.616 221.988 45.7867 221.092 45.744C219.769 45.6587 218.809 45.0827 218.212 44.016C217.657 42.9493 217.337 41.456 217.252 39.536C217.252 38.5547 217.231 37.424 217.188 36.144C217.188 34.864 217.167 33.5627 217.124 32.24C217.124 30.9173 217.124 29.6373 217.124 28.4C217.124 27.12 217.124 25.968 217.124 24.944C217.124 24.3467 217.103 23.6213 217.06 22.768C217.06 21.9147 217.081 21.04 217.124 20.144C217.167 19.248 217.273 18.3947 217.444 17.584C217.615 16.7307 217.892 16.0267 218.276 15.472C218.575 15.1307 219.001 14.8747 219.556 14.704C220.111 14.4907 220.687 14.384 221.284 14.384C221.924 14.384 222.521 14.4907 223.076 14.704C223.673 14.9173 224.1 15.216 224.356 15.6C224.527 15.856 224.655 16.2187 224.74 16.688C224.825 17.1573 224.889 17.6907 224.932 18.288C225.017 18.8427 225.06 19.44 225.06 20.08C225.103 20.6773 225.124 21.232 225.124 21.744ZM222.692 8.816C221.369 9.15733 220.26 9.02933 219.364 8.432C218.511 7.792 217.977 6.85333 217.764 5.616C217.593 4.72 217.657 3.93067 217.956 3.248C218.255 2.56533 218.703 2.05333 219.3 1.712C219.897 1.328 220.58 1.15733 221.348 1.2C222.116 1.24266 222.884 1.54133 223.652 2.096C224.377 2.608 224.889 3.20533 225.188 3.888C225.529 4.57066 225.636 5.232 225.508 5.872C225.423 6.512 225.145 7.10933 224.676 7.664C224.207 8.176 223.545 8.56 222.692 8.816ZM246.044 34.736C245.233 34.224 244.316 33.8187 243.292 33.52C242.31 33.2213 241.286 32.944 240.22 32.688C239.196 32.432 238.193 32.1547 237.212 31.856C236.23 31.5147 235.334 31.0453 234.524 30.448C232.774 29.1253 231.75 27.504 231.452 25.584C231.196 23.6213 231.622 21.6587 232.732 19.696C233.329 18.672 234.118 17.84 235.1 17.2C236.081 16.5173 237.148 16.0053 238.3 15.664C239.494 15.28 240.71 15.0667 241.948 15.024C243.185 14.9813 244.358 15.0453 245.468 15.216C246.193 15.344 246.961 15.536 247.772 15.792C248.582 16.0053 249.329 16.304 250.012 16.688C250.737 17.072 251.377 17.5627 251.932 18.16C252.529 18.7147 252.956 19.4187 253.212 20.272C253.382 20.8267 253.404 21.36 253.276 21.872C253.19 22.384 252.977 22.8107 252.636 23.152C252.337 23.4933 251.932 23.7493 251.42 23.92C250.95 24.0907 250.438 24.1333 249.884 24.048C249.244 23.92 248.646 23.728 248.092 23.472C247.537 23.216 246.982 22.9387 246.428 22.64C245.873 22.3413 245.297 22.0853 244.7 21.872C244.145 21.6587 243.548 21.552 242.908 21.552C241.926 21.5093 241.116 21.68 240.476 22.064C239.836 22.448 239.388 22.9173 239.132 23.472C238.918 24.0267 238.94 24.624 239.196 25.264C239.494 25.904 240.092 26.4587 240.988 26.928C241.798 27.3547 242.694 27.696 243.676 27.952C244.657 28.208 245.617 28.464 246.556 28.72C247.537 28.976 248.476 29.2747 249.372 29.616C250.31 29.9573 251.142 30.4267 251.868 31.024C253.276 32.176 254.129 33.52 254.428 35.056C254.769 36.592 254.684 38.1067 254.172 39.6C253.66 41.0933 252.764 42.416 251.484 43.568C250.246 44.72 248.774 45.488 247.068 45.872C245.83 46.128 244.486 46.256 243.036 46.256C241.628 46.256 240.22 46.1067 238.812 45.808C237.446 45.5093 236.124 45.04 234.844 44.4C233.606 43.76 232.561 42.9493 231.708 41.968C231.11 41.2853 230.79 40.5173 230.748 39.664C230.748 38.768 230.918 38 231.26 37.36C231.644 36.6773 232.177 36.208 232.86 35.952C233.542 35.696 234.31 35.8453 235.164 36.4C235.846 36.8693 236.657 37.3387 237.595 37.808C238.534 38.2347 239.473 38.576 240.412 38.832C241.35 39.088 242.246 39.216 243.1 39.216C243.996 39.216 244.764 39.024 245.404 38.64C246.342 38.0427 246.833 37.36 246.876 36.592C246.918 35.7813 246.641 35.1627 246.044 34.736ZM284.388 17.776C284.729 18.5867 284.751 19.4827 284.452 20.464C284.196 21.4453 283.705 22.0853 282.98 22.384C282.596 22.5547 282.084 22.704 281.444 22.832C280.804 22.9173 280.1 23.0027 279.332 23.088C278.607 23.1733 277.881 23.2373 277.156 23.28C276.431 23.3227 275.812 23.344 275.3 23.344C275.343 24.624 275.385 25.9467 275.428 27.312C275.471 28.6347 275.513 29.936 275.556 31.216C275.599 32.496 275.62 33.7333 275.62 34.928C275.62 36.08 275.599 37.1253 275.556 38.064C275.556 38.704 275.556 39.4507 275.556 40.304C275.556 41.1147 275.492 41.904 275.364 42.672C275.279 43.44 275.129 44.1227 274.916 44.72C274.703 45.2747 274.383 45.6373 273.956 45.808C272.633 46.3627 271.417 46.512 270.308 46.256C269.241 46.0427 268.473 45.5947 268.004 44.912C267.663 44.3573 267.407 43.7173 267.236 42.992C267.065 42.224 266.937 41.456 266.852 40.688C266.809 39.8773 266.788 39.1093 266.788 38.384C266.831 37.616 266.852 36.9547 266.852 36.4C266.895 34.608 266.916 32.5813 266.916 30.32C266.959 28.016 266.98 25.712 266.98 23.408H266.02C265.508 23.408 264.847 23.408 264.036 23.408C263.268 23.3653 262.479 23.3013 261.668 23.216C260.9 23.088 260.175 22.9387 259.492 22.768C258.809 22.5547 258.319 22.256 258.02 21.872C257.551 21.3173 257.252 20.72 257.124 20.08C257.039 19.44 257.081 18.8427 257.252 18.288C257.465 17.6907 257.785 17.1787 258.212 16.752C258.639 16.2827 259.129 15.984 259.684 15.856C260.452 15.6427 261.54 15.536 262.948 15.536C264.356 15.4933 265.679 15.4933 266.916 15.536C266.873 15.1093 266.852 14.704 266.852 14.32C266.852 13.8933 266.831 13.488 266.788 13.104C266.745 12.592 266.724 11.952 266.724 11.184C266.724 10.3733 266.767 9.584 266.852 8.816C266.98 8.00533 267.172 7.25866 267.428 6.576C267.684 5.85066 268.047 5.296 268.516 4.912C269.156 4.4 269.796 4.12266 270.436 4.08C271.119 3.99467 271.737 4.08 272.292 4.336C272.889 4.592 273.38 4.976 273.764 5.488C274.191 5.95733 274.489 6.49066 274.66 7.088C274.788 7.6 274.895 8.21866 274.98 8.944C275.065 9.62666 275.108 10.352 275.108 11.12C275.151 11.888 275.172 12.656 275.172 13.424C275.172 14.192 275.172 14.896 275.172 15.536H275.812C276.452 15.536 277.199 15.5147 278.052 15.472C278.905 15.4293 279.737 15.4507 280.548 15.536C281.401 15.6213 282.169 15.8347 282.852 16.176C283.535 16.4747 284.047 17.008 284.388 17.776Z" fill="#30AF5B"/>
</svg>
